<svg xmlns="http://www.w3.org/2000/svg" width="180" height="180" viewBox="0 0 180 180" version="1.1">
	<path d="M 0.079 39.250 C 0.153 75.368, 0.270 77.981, 1.553 72 C 3.462 63.097, 6.555 54.679, 10.640 47.271 C 12.529 43.845, 14.170 40.725, 14.287 40.339 C 14.576 39.386, 18.476 34.747, 24.500 28.192 C 36.663 14.958, 53.487 5.523, 72 1.553 C 77.981 0.270, 75.368 0.153, 39.250 0.079 L 0 0 0.079 39.250 M 108.337 1.630 C 143.610 9.196, 170.705 36.173, 178.515 71.500 C 179.701 76.866, 179.849 73.407, 179.921 38.750 L 180 0 140.750 0.082 C 103.705 0.158, 101.884 0.245, 108.337 1.630 M 125.534 55.945 C 125.191 56.499, 122.437 65.851, 119.414 76.726 C 116.390 87.602, 113.249 98.856, 112.434 101.736 L 110.952 106.973 78.335 107.236 C 49.588 107.469, 45.596 107.692, 44.699 109.114 C 44.140 110.002, 43.964 111.464, 44.309 112.364 C 44.874 113.835, 48.449 114, 79.846 114 C 106.561 114, 114.995 113.707, 115.779 112.750 C 116.342 112.063, 119.900 100.250, 123.686 86.500 L 130.569 61.500 140.035 61 C 149.331 60.509, 149.500 60.455, 149.500 58 L 149.500 55.500 137.828 55.219 C 130.756 55.049, 125.911 55.335, 125.534 55.945 M 39.240 60.250 C 38.541 61.119, 39.800 67.600, 43.368 81.512 C 46.190 92.518, 48.864 102.081, 49.309 102.762 C 49.921 103.698, 57.050 104, 78.536 104 C 106.931 104, 106.955 103.998, 108.335 101.750 C 109.094 100.513, 111.902 90.811, 114.573 80.192 C 118.715 63.724, 119.214 60.747, 117.965 59.957 C 115.576 58.446, 40.465 58.726, 39.240 60.250 M 0.082 140.750 L 0 180 38.750 179.890 C 63.730 179.820, 75.925 179.472, 73.069 178.912 C 37.612 171.957, 9.271 143.958, 1.630 108.337 C 0.245 101.884, 0.158 103.705, 0.082 140.750 M 178.607 107.908 C 177.338 117.471, 171.647 130.765, 164.064 141.879 C 152.082 159.440, 129.619 174.409, 109.113 178.494 C 103.158 179.681, 106.354 179.821, 141.250 179.906 L 180 180 180 141.500 C 180 120.325, 179.833 103, 179.629 103 C 179.425 103, 178.965 105.209, 178.607 107.908 M 57.379 117.916 C 53.546 120.247, 52.437 124.011, 54.442 127.887 C 56.852 132.548, 61.929 133.417, 66.365 129.927 C 69.679 127.320, 69.840 123.035, 66.750 119.637 C 63.606 116.178, 61.018 115.703, 57.379 117.916 M 99.357 117.046 C 96.582 118.096, 94 121.818, 94 124.770 C 94 127.828, 98.592 132, 101.957 132 C 104.908 132, 108.496 129.163, 109.484 126.050 C 111.025 121.194, 104.270 115.187, 99.357 117.046" stroke="none" fill="#000000" fill-rule="evenodd"/>
</svg>